<svg width="35" height="35" viewBox="0 0 35 35" fill="none" xmlns="http://www.w3.org/2000/svg">
<path d="M35 17.5C35 27.165 27.165 35 17.5 35C7.83502 35 0 27.165 0 17.5C0 7.83502 7.83502 0 17.5 0C27.165 0 35 7.83502 35 17.5Z" fill="#BDBDBD"/>
<path d="M12.8333 14.5834C12.4466 14.5834 12.0756 14.737 11.8021 15.0105C11.5286 15.284 11.375 15.6549 11.375 16.0417C11.375 16.4285 11.5286 16.7994 11.8021 17.0729C12.0756 17.3464 12.4466 17.5 12.8333 17.5C13.2201 17.5 13.591 17.3464 13.8645 17.0729C14.138 16.7994 14.2917 16.4285 14.2917 16.0417C14.2917 15.6549 14.138 15.284 13.8645 15.0105C13.591 14.737 13.2201 14.5834 12.8333 14.5834ZM17.5 14.5834C17.1132 14.5834 16.7423 14.737 16.4688 15.0105C16.1953 15.284 16.0417 15.6549 16.0417 16.0417C16.0417 16.4285 16.1953 16.7994 16.4688 17.0729C16.7423 17.3464 17.1132 17.5 17.5 17.5C17.8868 17.5 18.2577 17.3464 18.5312 17.0729C18.8047 16.7994 18.9583 16.4285 18.9583 16.0417C18.9583 15.6549 18.8047 15.284 18.5312 15.0105C18.2577 14.737 17.8868 14.5834 17.5 14.5834ZM20.7083 16.0417C20.7083 15.6549 20.862 15.284 21.1355 15.0105C21.409 14.737 21.7799 14.5834 22.1667 14.5834C22.5534 14.5834 22.9244 14.737 23.1979 15.0105C23.4714 15.284 23.625 15.6549 23.625 16.0417C23.625 16.4285 23.4714 16.7994 23.1979 17.0729C22.9244 17.3464 22.5534 17.5 22.1667 17.5C21.7799 17.5 21.409 17.3464 21.1355 17.0729C20.862 16.7994 20.7083 16.4285 20.7083 16.0417Z" fill="white"/>
<path fill-rule="evenodd" clip-rule="evenodd" d="M22.2832 8.8585C19.1403 8.59056 15.9809 8.57496 12.8355 8.81183L12.6103 8.82933C11.1641 8.93847 9.81257 9.58993 8.82628 10.6532C7.83999 11.7165 7.2918 13.1132 7.2915 14.5635V24.5C7.29164 24.6513 7.33098 24.7999 7.4057 24.9314C7.48042 25.063 7.58796 25.1729 7.71782 25.2504C7.84768 25.328 7.99544 25.3706 8.14666 25.374C8.29789 25.3774 8.44742 25.3416 8.58067 25.27L13.1423 22.8188C13.355 22.7045 13.5927 22.6448 13.8342 22.645H24.3062C25.6268 22.645 26.7585 21.7 26.9953 20.4015C27.476 17.7683 27.5133 15.0733 27.1073 12.4273L26.9883 11.6468C26.8825 10.9573 26.548 10.3233 26.0385 9.84683C25.529 9.37033 24.8741 9.07894 24.179 9.0195L22.2832 8.8585ZM12.9685 10.5572C16.0207 10.3265 19.0864 10.3413 22.1362 10.6015L24.0308 10.7637C24.6562 10.8173 25.1648 11.2922 25.2593 11.9128L25.3795 12.6922C25.7545 15.1461 25.7191 17.6453 25.2745 20.0877C25.2339 20.3145 25.1147 20.5197 24.9378 20.6673C24.761 20.815 24.5377 20.8956 24.3073 20.895H13.8342C13.304 20.8951 12.7821 21.0266 12.3152 21.2777L9.0415 23.037V14.5635C9.04156 13.5545 9.42276 12.5828 10.1088 11.843C10.7948 11.1031 11.7349 10.6497 12.741 10.5735L12.9685 10.5572Z" fill="white"/>
</svg>
