<svg width="20" height="20" viewBox="0 0 20 20" fill="none" xmlns="http://www.w3.org/2000/svg">
<path d="M11.7516 2.2199C12.275 1.87324 13.1616 1.62574 13.8308 2.2949L17.7033 6.16824C18.375 6.83824 18.1266 7.7249 17.7791 8.2474C17.591 8.53072 17.3461 8.77191 17.06 8.95574C16.7816 9.13324 16.43 9.2674 16.0508 9.2474C15.8674 9.23441 15.6845 9.21467 15.5025 9.18824L15.4458 9.1799C15.2503 9.15188 15.0537 9.13158 14.8566 9.11907C14.4366 9.09824 14.275 9.16907 14.2233 9.21907L12.1483 11.2949C12.0816 11.3616 11.9983 11.5099 11.935 11.7949C11.8741 12.0699 11.8475 12.4082 11.8408 12.7832C11.835 13.1432 11.8475 13.5116 11.8608 13.8666L11.8616 13.9057C11.8741 14.2582 11.8866 14.6182 11.8691 14.9007C11.815 15.7599 11.1458 16.3924 10.4875 16.6849C9.82913 16.9766 8.88997 17.0491 8.23747 16.3957L6.36247 14.5207L2.94163 17.9416C2.88441 18.003 2.81541 18.0522 2.73875 18.0864C2.66208 18.1205 2.57932 18.1389 2.4954 18.1404C2.41148 18.1419 2.32812 18.1264 2.2503 18.095C2.17248 18.0636 2.10178 18.0168 2.04243 17.9574C1.98308 17.8981 1.9363 17.8274 1.90486 17.7496C1.87343 17.6717 1.85799 17.5884 1.85947 17.5045C1.86095 17.4205 1.87932 17.3378 1.91348 17.2611C1.94764 17.1845 1.99689 17.1155 2.0583 17.0582L5.4783 13.6374L3.6033 11.7624C2.9508 11.1091 3.02247 10.1707 3.31497 9.5124C3.60663 8.85407 4.23997 8.1849 5.0983 8.13074C5.38163 8.11324 5.74163 8.12574 6.09413 8.13824L6.1333 8.13907C6.4883 8.15157 6.85663 8.1649 7.21663 8.15907C7.59163 8.1524 7.92997 8.12574 8.20496 8.0649C8.48996 8.00157 8.6383 7.9174 8.70497 7.85074L10.78 5.77574C10.8308 5.7249 10.9016 5.5624 10.88 5.1424C10.8675 4.94529 10.8472 4.74875 10.8191 4.55324L10.8116 4.49657C10.7852 4.31458 10.7655 4.13168 10.7525 3.94824C10.7316 3.56907 10.8658 3.2174 11.0425 2.93907C11.2225 2.65574 11.4716 2.40574 11.7516 2.2199Z" fill="#7C3AED"/>
</svg>
