<svg width="35" height="35" viewBox="0 0 35 35" fill="none" xmlns="http://www.w3.org/2000/svg">
<path fill-rule="evenodd" clip-rule="evenodd" d="M17.5 1.92278e-10C19.7981 -1.07723e-05 22.0737 0.452631 24.1969 1.33208C26.3201 2.21153 28.2493 3.50057 29.8744 5.12559C31.4994 6.75061 32.7884 8.6798 33.6679 10.803C34.5473 12.9262 35 15.2018 35 17.5C35 27.165 27.165 35 17.5 35C7.83504 35 0 27.165 0 17.5C0 7.83504 7.83504 1.92278e-10 17.5 1.92278e-10ZM19.25 19.25H15.75C11.4175 19.25 7.69797 21.8739 6.09369 25.6196C8.63206 29.179 12.795 31.5 17.5 31.5C22.2049 31.5 26.3679 29.179 28.9063 25.6193C27.302 21.8739 23.5825 19.25 19.25 19.25ZM17.5 5.25C14.6005 5.25 12.25 7.60052 12.25 10.5C12.25 13.3995 14.6005 15.75 17.5 15.75C20.3994 15.75 22.75 13.3995 22.75 10.5C22.75 7.60052 20.3995 5.25 17.5 5.25Z" fill="#BDBDBD"/>
</svg>
