<svg width="35" height="35" viewBox="0 0 35 35" fill="none" xmlns="http://www.w3.org/2000/svg">
<path d="M17.4991 29.3212L9.01619 34.6718C8.64144 34.9215 8.24966 35.0285 7.84084 34.9928C7.43203 34.9572 7.07431 34.8145 6.7677 34.5648C6.46109 34.3151 6.22261 34.0033 6.05227 33.6295C5.88193 33.2557 5.84786 32.8362 5.95007 32.3711L8.19856 22.2584L0.686558 15.4632C0.345877 15.1422 0.133293 14.7762 0.0488041 14.3653C-0.0356846 13.9543 -0.0104744 13.5534 0.124435 13.1624C0.259344 12.7715 0.463752 12.4505 0.737659 12.1993C1.01157 11.9482 1.38631 11.7877 1.8619 11.7178L11.7757 10.8082L15.6084 1.28414C15.7787 0.856094 16.0431 0.535058 16.4015 0.321035C16.7599 0.107011 17.1257 0 17.4991 0C17.8725 0 18.2384 0.107011 18.5968 0.321035C18.9552 0.535058 19.2196 0.856094 19.3899 1.28414L23.2226 10.8082L33.1363 11.7178C33.6133 11.7891 33.9881 11.9496 34.2606 12.1993C34.5331 12.449 34.7375 12.7701 34.8738 13.1624C35.0101 13.5548 35.036 13.9565 34.9515 14.3674C34.867 14.7783 34.6537 15.1436 34.3117 15.4632L26.7997 22.2584L29.0482 32.3711C29.1504 32.8348 29.1163 33.2543 28.946 33.6295C28.7756 34.0048 28.5372 34.3165 28.2306 34.5648C27.9239 34.8131 27.5662 34.9557 27.1574 34.9928C26.7486 35.0299 26.3568 34.9229 25.9821 34.6718L17.4991 29.3212Z" fill="#BDBDBD"/>
</svg>
