<svg width="20" height="22" viewBox="0 0 20 22" fill="none" xmlns="http://www.w3.org/2000/svg">
<path d="M3.75 22C3.0625 22 2.47417 21.7608 1.985 21.2826C1.49584 20.8043 1.25084 20.2286 1.25 19.5556V3.66667C0.895837 3.66667 0.599171 3.54933 0.360004 3.31467C0.120838 3.08 0.000837643 2.78993 4.31034e-06 2.44444C-0.000829023 2.09896 0.119171 1.80889 0.360004 1.57422C0.600838 1.33956 0.897504 1.22222 1.25 1.22222H6.25C6.25 0.875926 6.37 0.585852 6.61 0.352C6.85 0.118148 7.14667 0.000814815 7.5 0H12.5C12.8542 0 13.1512 0.117333 13.3912 0.352C13.6312 0.586667 13.7508 0.876741 13.75 1.22222H18.75C19.1042 1.22222 19.4012 1.33956 19.6412 1.57422C19.8812 1.80889 20.0008 2.09896 20 2.44444C19.9992 2.78993 19.8792 3.08041 19.64 3.31589C19.4008 3.55137 19.1042 3.6683 18.75 3.66667V19.5556C18.75 20.2278 18.5054 20.8034 18.0162 21.2826C17.5271 21.7617 16.9383 22.0008 16.25 22H3.75ZM7.5 17.1111C7.85417 17.1111 8.15125 16.9938 8.39125 16.7591C8.63125 16.5244 8.75083 16.2344 8.75 15.8889V7.33333C8.75 6.98704 8.63 6.69696 8.39 6.46311C8.15 6.22926 7.85333 6.11193 7.5 6.11111C7.14667 6.1103 6.85 6.22763 6.61 6.46311C6.37 6.69859 6.25 6.98867 6.25 7.33333V15.8889C6.25 16.2352 6.37 16.5257 6.61 16.7603C6.85 16.995 7.14667 17.1119 7.5 17.1111ZM12.5 17.1111C12.8542 17.1111 13.1512 16.9938 13.3912 16.7591C13.6312 16.5244 13.7508 16.2344 13.75 15.8889V7.33333C13.75 6.98704 13.63 6.69696 13.39 6.46311C13.15 6.22926 12.8533 6.11193 12.5 6.11111C12.1467 6.1103 11.85 6.22763 11.61 6.46311C11.37 6.69859 11.25 6.98867 11.25 7.33333V15.8889C11.25 16.2352 11.37 16.5257 11.61 16.7603C11.85 16.995 12.1467 17.1119 12.5 17.1111Z" fill="#D6C2F9"/>
</svg>
